<svg width="122" height="40" viewBox="0 0 122 40" fill="none" xmlns="http://www.w3.org/2000/svg">
<path d="M35.4875 22.6147C35.4875 23.0216 35.462 23.4455 35.4112 23.8864H25.5685C25.6364 24.768 25.9161 25.4463 26.4078 25.921C26.9165 26.3788 27.5354 26.6077 28.2645 26.6077C29.3496 26.6077 30.1041 26.1499 30.528 25.2343H35.1569C34.9195 26.1669 34.4871 27.0062 33.8598 27.7522C33.2494 28.4982 32.4779 29.0832 31.5453 29.5071C30.6128 29.931 29.57 30.1429 28.4171 30.1429C27.0267 30.1429 25.789 29.8462 24.7038 29.2528C23.6187 28.6593 22.7709 27.8115 22.1605 26.7094C21.5501 25.6073 21.2449 24.3187 21.2449 22.8436C21.2449 21.3685 21.5416 20.0799 22.1351 18.9778C22.7455 17.8757 23.5932 17.0279 24.6784 16.4344C25.7635 15.841 27.0098 15.5443 28.4171 15.5443C29.7905 15.5443 31.0112 15.8325 32.0794 16.409C33.1476 16.9855 33.9784 17.8078 34.5719 18.876C35.1823 19.9442 35.4875 21.1904 35.4875 22.6147ZM31.0367 21.4702C31.0367 20.7242 30.7823 20.1307 30.2737 19.6899C29.765 19.249 29.1292 19.0286 28.3662 19.0286C27.6371 19.0286 27.0182 19.2406 26.5096 19.6645C26.0179 20.0883 25.7127 20.6903 25.594 21.4702H31.0367ZM36.9171 22.8182C36.9171 21.36 37.1884 20.0799 37.731 18.9778C38.2905 17.8757 39.045 17.0279 39.9945 16.4344C40.944 15.841 42.0037 15.5443 43.1737 15.5443C44.1062 15.5443 44.954 15.7393 45.717 16.1292C46.4969 16.5192 47.1073 17.0448 47.5482 17.7061V11.1189H51.8972V29.9395H47.5482V27.9048C47.1412 28.583 46.5563 29.1256 45.7933 29.5325C45.0472 29.9395 44.174 30.1429 43.1737 30.1429C42.0037 30.1429 40.944 29.8462 39.9945 29.2528C39.045 28.6424 38.2905 27.7861 37.731 26.684C37.1884 25.5649 36.9171 24.2763 36.9171 22.8182ZM47.5482 22.8436C47.5482 21.7584 47.243 20.9022 46.6326 20.2748C46.0391 19.6475 45.31 19.3338 44.4453 19.3338C43.5806 19.3338 42.843 19.6475 42.2326 20.2748C41.6392 20.8852 41.3425 21.733 41.3425 22.8182C41.3425 23.9033 41.6392 24.768 42.2326 25.4123C42.843 26.0397 43.5806 26.3534 44.4453 26.3534C45.31 26.3534 46.0391 26.0397 46.6326 25.4123C47.243 24.785 47.5482 23.9287 47.5482 22.8436ZM69.0573 15.7477V29.9395H64.7082V28.0065C64.2674 28.6339 63.6654 29.1425 62.9025 29.5325C62.1564 29.9055 61.3256 30.0921 60.41 30.0921C59.3249 30.0921 58.3669 29.8547 57.5361 29.3799C56.7052 28.8882 56.0609 28.1846 55.6031 27.269C55.1453 26.3534 54.9164 25.2767 54.9164 24.039V15.7477H59.2401V23.454C59.2401 24.4035 59.4859 25.1411 59.9776 25.6667C60.4693 26.1923 61.1306 26.4551 61.9614 26.4551C62.8092 26.4551 63.4789 26.1923 63.9706 25.6667C64.4624 25.1411 64.7082 24.4035 64.7082 23.454V15.7477H69.0573ZM74.3684 14.2726C73.6054 14.2726 72.9781 14.0522 72.4864 13.6114C72.0116 13.1536 71.7743 12.594 71.7743 11.9328C71.7743 11.2546 72.0116 10.695 72.4864 10.2542C72.9781 9.79638 73.6054 9.56748 74.3684 9.56748C75.1145 9.56748 75.7249 9.79638 76.1996 10.2542C76.6913 10.695 76.9372 11.2546 76.9372 11.9328C76.9372 12.594 76.6913 13.1536 76.1996 13.6114C75.7249 14.0522 75.1145 14.2726 74.3684 14.2726ZM76.5303 15.7477V29.9395H72.1812V15.7477H76.5303ZM87.5917 26.2516V29.9395H85.379C83.8022 29.9395 82.5729 29.558 81.6912 28.795C80.8095 28.015 80.3687 26.7518 80.3687 25.0054V19.3593H78.6392V15.7477H80.3687V12.2888H84.7178V15.7477H87.5663V19.3593H84.7178V25.0563C84.7178 25.4802 84.8195 25.7854 85.0229 25.9719C85.2264 26.1584 85.5655 26.2516 86.0403 26.2516H87.5917ZM103.392 22.6147C103.392 23.0216 103.367 23.4455 103.316 23.8864H93.4731C93.5409 24.768 93.8207 25.4463 94.3124 25.921C94.8211 26.3788 95.44 26.6077 96.169 26.6077C97.2542 26.6077 98.0087 26.1499 98.4326 25.2343H103.061C102.824 26.1669 102.392 27.0062 101.764 27.7522C101.154 28.4982 100.382 29.0832 99.4499 29.5071C98.5174 29.931 97.4746 30.1429 96.3216 30.1429C94.9313 30.1429 93.6935 29.8462 92.6084 29.2528C91.5232 28.6593 90.6755 27.8115 90.0651 26.7094C89.4547 25.6073 89.1495 24.3187 89.1495 22.8436C89.1495 21.3685 89.4462 20.0799 90.0396 18.9778C90.65 17.8757 91.4978 17.0279 92.583 16.4344C93.6681 15.841 94.9143 15.5443 96.3216 15.5443C97.695 15.5443 98.9158 15.8325 99.984 16.409C101.052 16.9855 101.883 17.8078 102.476 18.876C103.087 19.9442 103.392 21.1904 103.392 22.6147ZM98.9413 21.4702C98.9413 20.7242 98.6869 20.1307 98.1783 19.6899C97.6696 19.249 97.0338 19.0286 96.2708 19.0286C95.5417 19.0286 94.9228 19.2406 94.4142 19.6645C93.9224 20.0883 93.6172 20.6903 93.4986 21.4702H98.9413ZM114.334 15.5951C115.995 15.5951 117.318 16.1377 118.301 17.2229C119.302 18.2911 119.802 19.7662 119.802 21.6482V29.9395H115.478V22.2332C115.478 21.2837 115.232 20.5461 114.741 20.0205C114.249 19.4949 113.588 19.2321 112.757 19.2321C111.926 19.2321 111.265 19.4949 110.773 20.0205C110.281 20.5461 110.035 21.2837 110.035 22.2332V29.9395H105.686V15.7477H110.035V17.6298C110.476 17.0024 111.07 16.5107 111.816 16.1547C112.562 15.7817 113.401 15.5951 114.334 15.5951Z" fill="#33B8C8"/>
<path d="M10.6002 32.3747C9.12231 32.3747 7.74852 32.1041 6.47882 31.5629C5.22993 31.0217 4.14755 30.2724 3.2317 29.3149C2.33666 28.3366 1.68099 27.2022 1.26469 25.9117L4.79281 24.3818C5.35482 25.7139 6.16659 26.7651 7.22815 27.5352C8.28971 28.2845 9.48657 28.6592 10.8187 28.6592C11.5681 28.6592 12.2133 28.5447 12.7545 28.3158C13.3165 28.066 13.7432 27.733 14.0346 27.3167C14.3468 26.9004 14.5029 26.4008 14.5029 25.818C14.5029 25.1311 14.2948 24.5691 13.8785 24.132C13.483 23.6741 12.8794 23.3202 12.0676 23.0704L7.60282 21.6342C5.79193 21.0722 4.42855 20.2292 3.5127 19.1052C2.59685 17.9812 2.13892 16.6594 2.13892 15.14C2.13892 13.8078 2.46155 12.6318 3.10681 11.6118C3.77289 10.5919 4.68874 9.80095 5.85437 9.23895C7.04082 8.65613 8.39379 8.36472 9.91327 8.36472C11.3079 8.36472 12.588 8.6145 13.7536 9.11406C14.9192 9.5928 15.9184 10.2693 16.751 11.1435C17.6044 11.9969 18.2392 13.0064 18.6555 14.1721L15.1586 15.7332C14.7007 14.5676 14.0138 13.6725 13.0979 13.0481C12.1821 12.4028 11.1205 12.0802 9.91327 12.0802C9.20557 12.0802 8.58112 12.2051 8.03993 12.4548C7.49875 12.6838 7.07204 13.0168 6.75982 13.454C6.46841 13.8703 6.32271 14.3698 6.32271 14.9526C6.32271 15.5979 6.53086 16.1703 6.94715 16.6699C7.36345 17.1486 7.9983 17.5233 8.85171 17.7939L13.1292 19.1364C14.9817 19.74 16.3659 20.5726 17.2817 21.6342C18.2184 22.6958 18.6867 24.0071 18.6867 25.5682C18.6867 26.9004 18.3433 28.0764 17.6564 29.0963C16.9695 30.1163 16.0224 30.9176 14.8152 31.5004C13.6079 32.0833 12.2029 32.3747 10.6002 32.3747ZM9.10149 35.1222V5.61716H11.7554V35.1222H9.10149Z" fill="#FFC741"/>
</svg>
